<svg width="46" height="46" fill="none" xmlns="http://www.w3.org/2000/svg"><g clip-path="url(#a)"><path d="m38.583 20.077-.62-1.163-1.177.594c-.9.454-1.872.68-2.887.675-3.474-.02-6.3-2.905-6.3-6.43v-2.265c0-3.675-1.259-7.283-3.544-10.16L23 0 9.47 17.035a17.674 17.674 0 0 0-4.11 11.063c-.068 4.716 1.743 9.191 5.099 12.602 3.354 3.41 7.797 5.292 12.51 5.3H23c4.707 0 9.133-1.83 12.465-5.157a17.527 17.527 0 0 0 5.179-12.487c0-2.884-.713-5.747-2.061-8.279Zm-10.8 15.753c.26 0 .523-.019.781-.06.17.55.256 1.124.256 1.715 0 1.557-.606 3.02-1.708 4.12a5.782 5.782 0 0 1-4.112 1.7h-.011a5.768 5.768 0 0 1-4.123-1.751 5.772 5.772 0 0 1-1.686-4.155 5.829 5.829 0 0 1 1.36-3.653l4.263-5.366c.184.54.28 1.11.28 1.686v.996c0 2.614 2.108 4.753 4.7 4.768Zm5.778 3.106a15.05 15.05 0 0 1-2.893 2.26 8.531 8.531 0 0 0-.148-7.707l-.62-1.163-1.176.593a2.02 2.02 0 0 1-.926.216c-1.114-.006-2.02-.936-2.02-2.073v-.997a7.97 7.97 0 0 0-1.723-4.937L23 23.799l-6.537 8.23a8.532 8.532 0 0 0-1.977 5.331c-.02 1.33.271 2.62.838 3.791a15.32 15.32 0 0 1-2.945-2.34c-2.847-2.894-4.384-6.685-4.326-10.674.05-3.427 1.29-6.76 3.492-9.384l.011-.014L22.93 4.421a13.701 13.701 0 0 1 1.974 7.067v2.265c0 5.003 4.028 9.096 8.98 9.125a9.024 9.024 0 0 0 2.845-.442c.8 1.859 1.22 3.883 1.22 5.92a14.85 14.85 0 0 1-4.388 10.58Z" fill="#fff"/></g><defs><clipPath id="a"><path fill="#fff" d="M0 0h46v46H0z"/></clipPath></defs></svg>