<svg width="30" height="30" fill="none" xmlns="http://www.w3.org/2000/svg"><g clip-path="url(#a)"><path d="m29.331 12.389-3.438-.846a11.341 11.341 0 0 0-.794-1.89l1.602-2.67a.879.879 0 0 0-.132-1.073l-2.486-2.486a.879.879 0 0 0-1.074-.132l-2.673 1.603a11.372 11.372 0 0 0-1.878-.788L17.611.67A.879.879 0 0 0 16.758 0h-3.516a.879.879 0 0 0-.853.669l-.847 3.438c-.69.219-1.356.503-1.992.849L8.093 4.08l-1.316-.79a.879.879 0 0 0-1.074.133L3.217 5.91a.879.879 0 0 0-.132 1.073c.011.02 1.042 1.737 1.715 2.864a11.367 11.367 0 0 0-.693 1.694c-1.172.292-3.411.841-3.437.848a.879.879 0 0 0-.67.853v3.516c0 .405.277.757.67.853.026.007 2.249.552 3.438.846.21.662.48 1.305.809 1.921l-1.535 2.558a.879.879 0 0 0 .132 1.074L6 26.496a.879.879 0 0 0 1.074.132l2.563-1.537c.61.325 1.249.594 1.907.802l.845 3.438c.096.393.449.669.853.669h3.516a.879.879 0 0 0 .853-.669l.846-3.438a11.19 11.19 0 0 0 1.948-.828l2.604 1.563a.879.879 0 0 0 1.074-.132l2.486-2.486a.879.879 0 0 0 .132-1.074l-1.58-2.632c.312-.591.57-1.21.772-1.847 1.044-.258 3.41-.839 3.438-.846a.879.879 0 0 0 .669-.853v-3.516a.879.879 0 0 0-.669-.853Zm-1.089 3.68c-1.015.25-2.855.702-3.206.79l-.066.016a.88.88 0 0 0-.628.624 9.55 9.55 0 0 1-.993 2.376.88.88 0 0 0 .004.897l1.488 2.48-1.516 1.516-2.457-1.475a.879.879 0 0 0-.908.002 9.43 9.43 0 0 1-2.458 1.046.878.878 0 0 0-.622.621c-.048.18-.096.372-.097.375l-.714 2.905H13.93l-.633-2.58-.171-.684a.879.879 0 0 0-.626-.636 9.608 9.608 0 0 1-2.429-1.022.88.88 0 0 0-.895-.001c-.19.112-1.597.956-2.42 1.449l-1.515-1.516 1.445-2.408a.879.879 0 0 0 .001-.902 9.516 9.516 0 0 1-1.027-2.44.879.879 0 0 0-.637-.628c-.629-.158-2.318-.573-3.266-.805V13.93a786.11 786.11 0 0 0 3.267-.807.88.88 0 0 0 .634-.626 9.608 9.608 0 0 1 .915-2.243.879.879 0 0 0-.01-.882 1454.48 1454.48 0 0 0-1.619-2.705L6.46 5.152l.728.437 1.901 1.14c.28.167.628.166.907-.003A9.609 9.609 0 0 1 12.5 5.658a.879.879 0 0 0 .626-.635l.804-3.265h2.138l.804 3.265c.078.31.318.553.626.635a9.612 9.612 0 0 1 2.405 1.008c.277.163.62.163.896 0l2.525-1.514 1.516 1.515-1.512 2.52a.879.879 0 0 0-.002.9 9.584 9.584 0 0 1 1.014 2.41c.081.303.317.54.62.622.18.049.373.097.376.098l2.905.714v2.138Z" fill="#fff"/></g><defs><clipPath id="a"><path fill="#fff" d="M0 0h30v30H0z"/></clipPath></defs></svg>